<?xml version="1.0" encoding="UTF-8" standalone="no"?><!DOCTYPE svg PUBLIC "-//W3C//DTD SVG 1.1//EN" "http://www.w3.org/Graphics/SVG/1.1/DTD/svg11.dtd"><svg width="100%" height="100%" viewBox="0 0 208 213" version="1.1" xmlns="http://www.w3.org/2000/svg" xmlns:xlink="http://www.w3.org/1999/xlink" xml:space="preserve" xmlns:serif="http://www.serif.com/" style="fill-rule:evenodd;clip-rule:evenodd;stroke-linejoin:round;stroke-miterlimit:2;"><g><g><path d="M130.163,28.378c-0,-0 -109.712,10.984 -127.077,79.236c-7.628,29.98 6.421,47.416 16.192,59.22c12.472,15.067 22.679,20.016 22.679,20.016c-48.562,-63.648 -26.511,-103.266 7.681,-126.972c34.192,-23.706 80.525,-31.5 80.525,-31.5Z" style="fill:url(#_Linear1);"/><path d="M130.163,28.378c-0,-0 -46.333,7.794 -80.525,31.5c-34.192,23.706 -56.243,63.324 -7.681,126.972c-3.832,-11.978 -2.99,-28.406 -2.99,-28.406c-63.118,-98.379 91.196,-130.066 91.196,-130.066Z" style="fill:url(#_Radial2);"/></g><g><rect x="68.867" y="23.892" width="50.831" height="4.485" style="fill:url(#_Linear3);"/><rect x="68.867" y="28.378" width="2.99" height="64.286" style="fill:url(#_Linear4);"/><rect x="116.708" y="28.378" width="2.99" height="64.286" style="fill:url(#_Linear5);"/><path d="M145.113,83.118c0,-9.584 -7.781,-17.365 -17.365,-17.365l-66.932,0c-9.583,0 -17.364,7.781 -17.364,17.365l-0,92.347c-0,9.584 7.781,17.365 17.364,17.365l66.932,-0c9.584,-0 17.365,-7.781 17.365,-17.365l0,-92.347Zm-12.708,37.951l-76.246,-0l0,58.306l76.246,-0l0,-58.306Zm-10.465,-19.435c0,-4.126 -3.349,-7.475 -7.475,-7.475l-40.365,-0c-4.126,-0 -7.476,3.349 -7.476,7.475c0,4.125 3.35,7.475 7.476,7.475l40.365,-0c4.126,-0 7.475,-3.35 7.475,-7.475Z" style="fill:url(#_Linear6);"/><path d="M112.97,98.644c0,-0.826 -0.67,-1.495 -1.495,-1.495l-34.385,-0c-0.826,-0 -1.495,0.669 -1.495,1.495c-0,0.825 0.669,1.495 1.495,1.495l34.385,-0c0.825,-0 1.495,-0.67 1.495,-1.495Z" style="fill:url(#_Linear7);"/><g><path d="M125.678,186.85c7.013,-0 12.708,5.694 12.708,12.708c-0,7.013 -5.695,12.707 -12.708,12.707c-7.014,0 -12.708,-5.694 -12.708,-12.707c0,-7.014 5.694,-12.708 12.708,-12.708Zm-0,7.475c2.888,0 5.232,2.345 5.232,5.233c0,2.888 -2.344,5.232 -5.232,5.232c-2.888,0 -5.233,-2.344 -5.233,-5.232c0,-2.888 2.345,-5.233 5.233,-5.233Z" style="fill:url(#_Linear8);"/><path d="M62.887,186.85c7.013,-0 12.708,5.694 12.708,12.708c-0,7.013 -5.695,12.707 -12.708,12.707c-7.014,0 -12.708,-5.694 -12.708,-12.707c0,-7.014 5.694,-12.708 12.708,-12.708Zm-0,7.475c2.888,0 5.232,2.345 5.232,5.233c0,2.888 -2.344,5.232 -5.232,5.232c-2.888,0 -5.233,-2.344 -5.233,-5.232c0,-2.888 2.345,-5.233 5.233,-5.233Z" style="fill:url(#_Linear9);"/></g></g><path d="M201.855,15.023c2.231,0.893 5.242,0.893 5.242,3.349c0,5.8 -23.982,9.258 -24.876,9.258l-7.919,17.293c-0.559,1.338 -1.34,1.674 -2.234,1.784l-2.567,0.223l0,-12.046l-5.018,-4.464c-0.559,-0 -3.796,0.555 -10.487,0.555c-7.809,0 -9.929,-0.332 -10.487,-0.332l-0.89,3.792c-0.114,0.671 -2.01,1.004 -2.344,0.558l-4.017,-5.355c-0.779,-0 -2.788,-0.221 -2.788,-0.893c-0,-0.889 0.334,-1.225 0.781,-1.447l-8.479,-7.923c-0.556,-0.556 1.452,-1.671 3.235,-0.782l8.256,3.904l-0.559,-6.47l1.897,-0.331c0.67,-0.113 2.122,0.893 2.566,1.335l5.803,6.249l10.039,-1.898l-4.686,-4.793l-21.974,-13.834l1.894,-1.452c-0,0 0.448,-0.445 2.009,-0.445l43.618,16.958l13.61,-2.566c0.557,-0.113 2.901,-1.451 5.689,-1.451c3.015,0 3.015,0.556 4.688,1.224" style="fill:#c8f18b;fill-rule:nonzero;"/></g><defs><linearGradient id="_Linear1" x1="0" y1="0" x2="1" y2="0" gradientUnits="userSpaceOnUse" gradientTransform="matrix(88.1573,-80.4534,80.4534,88.1573,6.12509,98.3658)"><stop offset="0" style="stop-color:#3e99b5;stop-opacity:1"/><stop offset="1" style="stop-color:#c7f08b;stop-opacity:1"/></linearGradient><radialGradient id="_Radial2" cx="0" cy="0" r="1" gradientUnits="userSpaceOnUse" gradientTransform="matrix(19.4057,80.6629,-80.6629,19.4057,19.5312,85.1884)"><stop offset="0" style="stop-color:#c7f08b;stop-opacity:1"/><stop offset="1" style="stop-color:#3e99b5;stop-opacity:1"/></radialGradient><linearGradient id="_Linear3" x1="0" y1="0" x2="1" y2="0" gradientUnits="userSpaceOnUse" gradientTransform="matrix(1.23584e-14,201.828,-201.828,1.23584e-14,94.2824,-22.4532)"><stop offset="0" style="stop-color:#c7f08b;stop-opacity:1"/><stop offset="0.44" style="stop-color:#9ed698;stop-opacity:1"/><stop offset="1" style="stop-color:#3e99b5;stop-opacity:1"/></linearGradient><linearGradient id="_Linear4" x1="0" y1="0" x2="1" y2="0" gradientUnits="userSpaceOnUse" gradientTransform="matrix(1.23584e-14,201.828,-201.828,1.23584e-14,94.2824,-22.4532)"><stop offset="0" style="stop-color:#c7f08b;stop-opacity:1"/><stop offset="0.44" style="stop-color:#9ed698;stop-opacity:1"/><stop offset="1" style="stop-color:#3e99b5;stop-opacity:1"/></linearGradient><linearGradient id="_Linear5" x1="0" y1="0" x2="1" y2="0" gradientUnits="userSpaceOnUse" gradientTransform="matrix(1.23584e-14,201.828,-201.828,1.23584e-14,94.2824,-22.4532)"><stop offset="0" style="stop-color:#c7f08b;stop-opacity:1"/><stop offset="0.44" style="stop-color:#9ed698;stop-opacity:1"/><stop offset="1" style="stop-color:#3e99b5;stop-opacity:1"/></linearGradient><linearGradient id="_Linear6" x1="0" y1="0" x2="1" y2="0" gradientUnits="userSpaceOnUse" gradientTransform="matrix(1.23584e-14,201.828,-201.828,1.23584e-14,94.2824,-22.4532)"><stop offset="0" style="stop-color:#c7f08b;stop-opacity:1"/><stop offset="0.44" style="stop-color:#9ed698;stop-opacity:1"/><stop offset="1" style="stop-color:#3e99b5;stop-opacity:1"/></linearGradient><linearGradient id="_Linear7" x1="0" y1="0" x2="1" y2="0" gradientUnits="userSpaceOnUse" gradientTransform="matrix(1.23584e-14,201.828,-201.828,1.23584e-14,94.2824,-22.4532)"><stop offset="0" style="stop-color:#c7f08b;stop-opacity:1"/><stop offset="0.44" style="stop-color:#9ed698;stop-opacity:1"/><stop offset="1" style="stop-color:#3e99b5;stop-opacity:1"/></linearGradient><linearGradient id="_Linear8" x1="0" y1="0" x2="1" y2="0" gradientUnits="userSpaceOnUse" gradientTransform="matrix(1.23584e-14,201.828,-201.828,1.23584e-14,-325.071,-4.51295)"><stop offset="0" style="stop-color:#c7f08b;stop-opacity:1"/><stop offset="0.44" style="stop-color:#9ed698;stop-opacity:1"/><stop offset="1" style="stop-color:#3e99b5;stop-opacity:1"/></linearGradient><linearGradient id="_Linear9" x1="0" y1="0" x2="1" y2="0" gradientUnits="userSpaceOnUse" gradientTransform="matrix(1.23584e-14,201.828,-201.828,1.23584e-14,-329.556,-4.51295)"><stop offset="0" style="stop-color:#c7f08b;stop-opacity:1"/><stop offset="0.44" style="stop-color:#9ed698;stop-opacity:1"/><stop offset="1" style="stop-color:#3e99b5;stop-opacity:1"/></linearGradient></defs></svg>