<?xml version="1.0" encoding="UTF-8" standalone="no"?><!DOCTYPE svg PUBLIC "-//W3C//DTD SVG 1.1//EN" "http://www.w3.org/Graphics/SVG/1.1/DTD/svg11.dtd"><svg width="100%" height="100%" viewBox="0 0 376 247" version="1.1" xmlns="http://www.w3.org/2000/svg" xmlns:xlink="http://www.w3.org/1999/xlink" xml:space="preserve" xmlns:serif="http://www.serif.com/" style="fill-rule:evenodd;clip-rule:evenodd;stroke-linejoin:round;stroke-miterlimit:2;"><g><g><g><path d="M222.163,28.378c-0,-0 -109.712,10.984 -127.077,79.236c-7.628,29.98 6.421,47.416 16.192,59.22c12.472,15.067 22.679,20.016 22.679,20.016c-48.562,-63.648 -26.511,-103.266 7.681,-126.972c34.192,-23.706 80.525,-31.5 80.525,-31.5Z" style="fill:url(#_Linear1);"/><path d="M222.163,28.378c-0,-0 -46.333,7.794 -80.525,31.5c-34.192,23.706 -56.243,63.324 -7.681,126.972c-3.832,-11.978 -2.99,-28.406 -2.99,-28.406c-63.118,-98.379 91.196,-130.066 91.196,-130.066Z" style="fill:url(#_Radial2);"/></g><g><rect x="160.867" y="23.892" width="50.831" height="4.485" style="fill:url(#_Linear3);"/><rect x="160.867" y="28.378" width="2.99" height="64.286" style="fill:url(#_Linear4);"/><rect x="208.708" y="28.378" width="2.99" height="64.286" style="fill:url(#_Linear5);"/><path d="M237.113,83.118c0,-9.584 -7.781,-17.365 -17.365,-17.365l-66.932,0c-9.583,0 -17.364,7.781 -17.364,17.365l-0,92.347c-0,9.584 7.781,17.365 17.364,17.365l66.932,-0c9.584,-0 17.365,-7.781 17.365,-17.365l0,-92.347Zm-12.708,37.951l-76.246,-0l0,58.306l76.246,-0l0,-58.306Zm-10.465,-19.435c0,-4.126 -3.349,-7.475 -7.475,-7.475l-40.365,-0c-4.126,-0 -7.476,3.349 -7.476,7.475c0,4.125 3.35,7.475 7.476,7.475l40.365,-0c4.126,-0 7.475,-3.35 7.475,-7.475Z" style="fill:url(#_Linear6);"/><path d="M204.97,98.644c0,-0.826 -0.67,-1.495 -1.495,-1.495l-34.385,-0c-0.826,-0 -1.495,0.669 -1.495,1.495c-0,0.825 0.669,1.495 1.495,1.495l34.385,-0c0.825,-0 1.495,-0.67 1.495,-1.495Z" style="fill:url(#_Linear7);"/><g><path d="M217.678,186.85c7.013,-0 12.708,5.694 12.708,12.708c-0,7.013 -5.695,12.707 -12.708,12.707c-7.014,0 -12.708,-5.694 -12.708,-12.707c0,-7.014 5.694,-12.708 12.708,-12.708Zm-0,7.475c2.888,0 5.232,2.345 5.232,5.233c0,2.888 -2.344,5.232 -5.232,5.232c-2.888,0 -5.233,-2.344 -5.233,-5.232c0,-2.888 2.345,-5.233 5.233,-5.233Z" style="fill:url(#_Linear8);"/><path d="M154.887,186.85c7.013,-0 12.708,5.694 12.708,12.708c-0,7.013 -5.695,12.707 -12.708,12.707c-7.014,0 -12.708,-5.694 -12.708,-12.707c0,-7.014 5.694,-12.708 12.708,-12.708Zm-0,7.475c2.888,0 5.232,2.345 5.232,5.233c0,2.888 -2.344,5.232 -5.232,5.232c-2.888,0 -5.233,-2.344 -5.233,-5.232c0,-2.888 2.345,-5.233 5.233,-5.233Z" style="fill:url(#_Linear9);"/></g></g><path d="M293.855,15.023c2.231,0.893 5.242,0.893 5.242,3.349c0,5.8 -23.982,9.258 -24.876,9.258l-7.919,17.293c-0.559,1.338 -1.34,1.674 -2.234,1.784l-2.567,0.223l0,-12.046l-5.018,-4.464c-0.559,-0 -3.796,0.555 -10.487,0.555c-7.809,0 -9.929,-0.332 -10.487,-0.332l-0.89,3.792c-0.114,0.671 -2.01,1.004 -2.344,0.558l-4.017,-5.355c-0.779,-0 -2.788,-0.221 -2.788,-0.893c-0,-0.889 0.334,-1.225 0.781,-1.447l-8.479,-7.923c-0.556,-0.556 1.452,-1.671 3.235,-0.782l8.256,3.904l-0.559,-6.47l1.897,-0.331c0.67,-0.113 2.122,0.893 2.566,1.335l5.803,6.249l10.039,-1.898l-4.686,-4.793l-21.974,-13.834l1.894,-1.452c-0,0 0.448,-0.445 2.009,-0.445l43.618,16.958l13.61,-2.566c0.557,-0.113 2.901,-1.451 5.689,-1.451c3.015,0 3.015,0.556 4.688,1.224" style="fill:#c8f18b;fill-rule:nonzero;"/></g><path d="M17.579,239.54c0,0.862 -0.2,1.714 -0.601,2.556c-0.402,0.842 -0.964,1.556 -1.687,2.14c-0.793,0.634 -1.717,1.13 -2.772,1.486c-1.055,0.357 -2.326,0.536 -3.812,0.536c-1.596,-0 -3.03,-0.149 -4.303,-0.446c-1.273,-0.298 -2.569,-0.739 -3.887,-1.323l0,-3.686l0.208,-0c1.12,0.931 2.413,1.65 3.88,2.155c1.466,0.505 2.843,0.758 4.131,0.758c1.823,0 3.243,-0.342 4.258,-1.025c1.016,-0.684 1.524,-1.596 1.524,-2.735c-0,-0.981 -0.24,-1.704 -0.721,-2.17c-0.481,-0.466 -1.211,-0.827 -2.192,-1.085c-0.743,-0.198 -1.548,-0.362 -2.415,-0.491c-0.867,-0.128 -1.786,-0.292 -2.757,-0.49c-1.962,-0.416 -3.416,-1.127 -4.362,-2.133c-0.947,-1.005 -1.42,-2.316 -1.42,-3.931c0,-1.853 0.783,-3.371 2.348,-4.555c1.566,-1.184 3.553,-1.776 5.96,-1.776c1.556,-0 2.983,0.148 4.281,0.446c1.298,0.297 2.447,0.663 3.448,1.099l-0,3.478l-0.208,0c-0.843,-0.713 -1.95,-1.305 -3.322,-1.776c-1.372,-0.47 -2.777,-0.706 -4.214,-0.706c-1.575,0 -2.841,0.327 -3.797,0.981c-0.956,0.654 -1.434,1.496 -1.434,2.527c-0,0.921 0.238,1.645 0.713,2.17c0.476,0.525 1.313,0.926 2.512,1.204c0.634,0.138 1.536,0.307 2.705,0.505c1.169,0.198 2.16,0.401 2.972,0.609c1.645,0.436 2.884,1.095 3.716,1.977c0.832,0.882 1.248,2.115 1.248,3.701Z" style="fill:#4a9fba;fill-rule:nonzero;"/><path d="M38.803,226.268c0.902,0.99 1.593,2.204 2.073,3.641c0.481,1.437 0.721,3.066 0.721,4.89c0,1.823 -0.245,3.455 -0.735,4.897c-0.491,1.441 -1.177,2.643 -2.059,3.604c-0.911,1.001 -1.989,1.754 -3.232,2.259c-1.244,0.505 -2.663,0.758 -4.259,0.758c-1.555,-0 -2.97,-0.258 -4.243,-0.773c-1.273,-0.515 -2.356,-1.263 -3.247,-2.244c-0.892,-0.981 -1.578,-2.185 -2.059,-3.612c-0.48,-1.426 -0.721,-3.056 -0.721,-4.889c0,-1.804 0.238,-3.421 0.714,-4.853c0.475,-1.432 1.169,-2.658 2.081,-3.678c0.872,-0.972 1.954,-1.715 3.247,-2.23c1.293,-0.515 2.703,-0.773 4.228,-0.773c1.586,0 3.01,0.26 4.273,0.781c1.264,0.52 2.336,1.26 3.218,2.222Zm-0.267,8.531c-0,-2.874 -0.644,-5.091 -1.933,-6.651c-1.288,-1.561 -3.046,-2.341 -5.276,-2.341c-2.249,-0 -4.015,0.78 -5.298,2.341c-1.283,1.56 -1.925,3.777 -1.925,6.651c0,2.903 0.654,5.125 1.962,6.665c1.308,1.541 3.062,2.311 5.261,2.311c2.2,0 3.951,-0.77 5.254,-2.311c1.303,-1.54 1.955,-3.762 1.955,-6.665Z" style="fill:#4a9fba;fill-rule:nonzero;"/><path d="M62.925,236.968c-0,1.606 -0.176,3.005 -0.528,4.199c-0.351,1.194 -0.929,2.187 -1.731,2.98c-0.763,0.753 -1.655,1.303 -2.675,1.65c-1.021,0.347 -2.21,0.52 -3.567,0.52c-1.388,-0 -2.596,-0.183 -3.627,-0.55c-1.03,-0.367 -1.897,-0.907 -2.601,-1.62c-0.802,-0.812 -1.38,-1.793 -1.731,-2.943c-0.352,-1.149 -0.528,-2.561 -0.528,-4.236l0,-13.242l2.943,0l-0,13.391c-0,1.199 0.082,2.145 0.245,2.839c0.164,0.693 0.439,1.323 0.825,1.887c0.436,0.644 1.028,1.13 1.776,1.457c0.748,0.327 1.647,0.49 2.698,0.49c1.06,0 1.961,-0.161 2.705,-0.483c0.743,-0.322 1.337,-0.81 1.783,-1.464c0.386,-0.564 0.661,-1.211 0.825,-1.939c0.163,-0.728 0.245,-1.633 0.245,-2.713l0,-13.465l2.943,0l-0,13.242Z" style="fill:#4a9fba;fill-rule:nonzero;"/><path d="M84.327,226.342l-7.907,-0l0,19.514l-2.943,0l0,-19.514l-7.907,-0l0,-2.616l18.757,0l-0,2.616Z" style="fill:#4a9fba;fill-rule:nonzero;"/><path d="M104.228,245.856l-2.943,0l-0,-10.835l-11.043,0l0,10.835l-2.943,0l0,-22.13l2.943,0l0,8.68l11.043,-0l-0,-8.68l2.943,0l-0,22.13Z" style="fill:#4a9fba;fill-rule:nonzero;"/><path d="M126.254,239.54c-0,0.862 -0.201,1.714 -0.602,2.556c-0.401,0.842 -0.964,1.556 -1.687,2.14c-0.793,0.634 -1.717,1.13 -2.772,1.486c-1.055,0.357 -2.326,0.536 -3.812,0.536c-1.595,-0 -3.029,-0.149 -4.303,-0.446c-1.273,-0.298 -2.568,-0.739 -3.886,-1.323l-0,-3.686l0.208,-0c1.119,0.931 2.413,1.65 3.879,2.155c1.466,0.505 2.844,0.758 4.132,0.758c1.823,0 3.242,-0.342 4.258,-1.025c1.015,-0.684 1.523,-1.596 1.523,-2.735c0,-0.981 -0.24,-1.704 -0.721,-2.17c-0.48,-0.466 -1.211,-0.827 -2.192,-1.085c-0.743,-0.198 -1.548,-0.362 -2.415,-0.491c-0.867,-0.128 -1.786,-0.292 -2.757,-0.49c-1.962,-0.416 -3.416,-1.127 -4.362,-2.133c-0.946,-1.005 -1.419,-2.316 -1.419,-3.931c-0,-1.853 0.782,-3.371 2.348,-4.555c1.565,-1.184 3.552,-1.776 5.96,-1.776c1.555,-0 2.982,0.148 4.28,0.446c1.298,0.297 2.447,0.663 3.448,1.099l0,3.478l-0.208,0c-0.842,-0.713 -1.949,-1.305 -3.322,-1.776c-1.372,-0.47 -2.777,-0.706 -4.213,-0.706c-1.576,0 -2.841,0.327 -3.798,0.981c-0.956,0.654 -1.434,1.496 -1.434,2.527c0,0.921 0.238,1.645 0.714,2.17c0.475,0.525 1.312,0.926 2.511,1.204c0.634,0.138 1.536,0.307 2.705,0.505c1.169,0.198 2.16,0.401 2.973,0.609c1.645,0.436 2.883,1.095 3.715,1.977c0.833,0.882 1.249,2.115 1.249,3.701Z" style="fill:#4a9fba;fill-rule:nonzero;"/><path d="M138.783,245.856l-8.739,0l-0,-2.259l2.898,0l-0,-17.612l-2.898,0l-0,-2.259l8.739,0l-0,2.259l-2.898,0l-0,17.612l2.898,0l-0,2.259Z" style="fill:#4a9fba;fill-rule:nonzero;"/><path d="M162.489,234.813c-0,2.012 -0.439,3.835 -1.316,5.47c-0.877,1.635 -2.043,2.903 -3.5,3.805c-1.011,0.624 -2.138,1.075 -3.381,1.352c-1.244,0.278 -2.881,0.416 -4.912,0.416l-5.588,0l-0,-22.13l5.528,0c2.16,0 3.877,0.156 5.15,0.468c1.273,0.312 2.351,0.741 3.233,1.286c1.506,0.941 2.68,2.194 3.522,3.76c0.842,1.566 1.264,3.423 1.264,5.573Zm-3.077,-0.044c0,-1.734 -0.302,-3.196 -0.907,-4.385c-0.604,-1.189 -1.506,-2.125 -2.705,-2.809c-0.871,-0.495 -1.798,-0.839 -2.779,-1.033c-0.981,-0.193 -2.155,-0.289 -3.522,-0.289l-2.765,-0l0,17.077l2.765,-0c1.417,-0 2.653,-0.104 3.708,-0.312c1.055,-0.209 2.024,-0.595 2.906,-1.16c1.099,-0.703 1.924,-1.63 2.474,-2.779c0.55,-1.149 0.825,-2.586 0.825,-4.31Z" style="fill:#4a9fba;fill-rule:nonzero;"/><path d="M181.825,245.856l-14.58,0l-0,-22.13l14.58,0l-0,2.616l-11.638,-0l0,6.064l11.638,-0l-0,2.615l-11.638,0l0,8.219l11.638,0l-0,2.616Z" style="fill:#4a9fba;fill-rule:nonzero;"/><path d="M212.976,226.342l-7.906,-0l-0,19.514l-2.943,0l-0,-19.514l-7.907,-0l-0,-2.616l18.756,0l0,2.616Z" style="fill:#4a9fba;fill-rule:nonzero;"/><path d="M234.259,245.856l-3.819,0l-7.402,-8.798l-4.146,-0l-0,8.798l-2.943,0l-0,-22.13l6.198,0c1.337,0 2.452,0.087 3.344,0.26c0.891,0.174 1.694,0.483 2.407,0.929c0.803,0.505 1.43,1.142 1.88,1.91c0.451,0.768 0.677,1.741 0.677,2.92c-0,1.596 -0.402,2.931 -1.204,4.006c-0.803,1.075 -1.908,1.885 -3.315,2.43l8.323,9.675Zm-6.881,-15.903c0,-0.634 -0.111,-1.196 -0.334,-1.686c-0.223,-0.491 -0.592,-0.905 -1.108,-1.242c-0.426,-0.287 -0.931,-0.487 -1.516,-0.601c-0.584,-0.114 -1.273,-0.171 -2.065,-0.171l-3.463,-0l-0,8.352l2.972,0c0.932,0 1.744,-0.081 2.438,-0.245c0.693,-0.163 1.283,-0.468 1.768,-0.914c0.446,-0.416 0.776,-0.894 0.989,-1.434c0.213,-0.54 0.319,-1.226 0.319,-2.059Z" style="fill:#4a9fba;fill-rule:nonzero;"/><path d="M254.562,245.856l-3.136,0l-2.17,-6.168l-9.572,0l-2.17,6.168l-2.987,0l8.055,-22.13l3.924,0l8.056,22.13Zm-6.213,-8.694l-3.879,-10.865l-3.894,10.865l7.773,-0Z" style="fill:#4a9fba;fill-rule:nonzero;"/><path d="M274.804,245.856l-3.641,0l-10.493,-19.797l0,19.797l-2.75,0l0,-22.13l4.563,0l9.572,18.073l-0,-18.073l2.749,0l0,22.13Z" style="fill:#4a9fba;fill-rule:nonzero;"/><path d="M296.771,239.54c-0,0.862 -0.201,1.714 -0.602,2.556c-0.401,0.842 -0.964,1.556 -1.687,2.14c-0.793,0.634 -1.716,1.13 -2.772,1.486c-1.055,0.357 -2.326,0.536 -3.812,0.536c-1.595,-0 -3.029,-0.149 -4.303,-0.446c-1.273,-0.298 -2.568,-0.739 -3.886,-1.323l-0,-3.686l0.208,-0c1.12,0.931 2.413,1.65 3.879,2.155c1.466,0.505 2.844,0.758 4.132,0.758c1.823,0 3.242,-0.342 4.258,-1.025c1.016,-0.684 1.523,-1.596 1.523,-2.735c0,-0.981 -0.24,-1.704 -0.721,-2.17c-0.48,-0.466 -1.211,-0.827 -2.192,-1.085c-0.743,-0.198 -1.548,-0.362 -2.415,-0.491c-0.867,-0.128 -1.786,-0.292 -2.757,-0.49c-1.962,-0.416 -3.416,-1.127 -4.362,-2.133c-0.946,-1.005 -1.419,-2.316 -1.419,-3.931c-0,-1.853 0.782,-3.371 2.348,-4.555c1.565,-1.184 3.552,-1.776 5.96,-1.776c1.555,-0 2.982,0.148 4.28,0.446c1.298,0.297 2.447,0.663 3.448,1.099l0,3.478l-0.208,0c-0.842,-0.713 -1.949,-1.305 -3.322,-1.776c-1.372,-0.47 -2.776,-0.706 -4.213,-0.706c-1.576,0 -2.841,0.327 -3.797,0.981c-0.957,0.654 -1.435,1.496 -1.435,2.527c0,0.921 0.238,1.645 0.714,2.17c0.475,0.525 1.313,0.926 2.511,1.204c0.635,0.138 1.536,0.307 2.705,0.505c1.17,0.198 2.16,0.401 2.973,0.609c1.645,0.436 2.883,1.095 3.716,1.977c0.832,0.882 1.248,2.115 1.248,3.701Z" style="fill:#4a9fba;fill-rule:nonzero;"/><path d="M315.631,226.342l-11.191,-0l0,6.242l9.616,0l0,2.616l-9.616,-0l0,10.656l-2.943,0l0,-22.13l14.134,0l0,2.616Z" style="fill:#4a9fba;fill-rule:nonzero;"/><path d="M333.57,245.856l-14.58,0l0,-22.13l14.58,0l0,2.616l-11.637,-0l0,6.064l11.637,-0l0,2.615l-11.637,0l0,8.219l11.637,0l0,2.616Z" style="fill:#4a9fba;fill-rule:nonzero;"/><path d="M356.548,245.856l-3.82,0l-7.401,-8.798l-4.147,-0l0,8.798l-2.943,0l0,-22.13l6.198,0c1.338,0 2.452,0.087 3.344,0.26c0.892,0.174 1.694,0.483 2.408,0.929c0.802,0.505 1.429,1.142 1.88,1.91c0.451,0.768 0.676,1.741 0.676,2.92c0,1.596 -0.401,2.931 -1.204,4.006c-0.802,1.075 -1.907,1.885 -3.314,2.43l8.323,9.675Zm-6.881,-15.903c-0,-0.634 -0.112,-1.196 -0.335,-1.686c-0.223,-0.491 -0.592,-0.905 -1.107,-1.242c-0.426,-0.287 -0.932,-0.487 -1.516,-0.601c-0.585,-0.114 -1.273,-0.171 -2.066,-0.171l-3.463,-0l0,8.352l2.973,0c0.931,0 1.743,-0.081 2.437,-0.245c0.694,-0.163 1.283,-0.468 1.769,-0.914c0.445,-0.416 0.775,-0.894 0.988,-1.434c0.213,-0.54 0.32,-1.226 0.32,-2.059Z" style="fill:#4a9fba;fill-rule:nonzero;"/><path d="M375.483,239.54c-0,0.862 -0.201,1.714 -0.602,2.556c-0.402,0.842 -0.964,1.556 -1.687,2.14c-0.793,0.634 -1.717,1.13 -2.772,1.486c-1.055,0.357 -2.326,0.536 -3.812,0.536c-1.596,-0 -3.03,-0.149 -4.303,-0.446c-1.273,-0.298 -2.569,-0.739 -3.886,-1.323l-0,-3.686l0.208,-0c1.119,0.931 2.412,1.65 3.879,2.155c1.466,0.505 2.843,0.758 4.131,0.758c1.824,0 3.243,-0.342 4.259,-1.025c1.015,-0.684 1.523,-1.596 1.523,-2.735c-0,-0.981 -0.24,-1.704 -0.721,-2.17c-0.48,-0.466 -1.211,-0.827 -2.192,-1.085c-0.743,-0.198 -1.548,-0.362 -2.415,-0.491c-0.867,-0.128 -1.786,-0.292 -2.757,-0.49c-1.962,-0.416 -3.416,-1.127 -4.362,-2.133c-0.947,-1.005 -1.42,-2.316 -1.42,-3.931c0,-1.853 0.783,-3.371 2.349,-4.555c1.565,-1.184 3.552,-1.776 5.959,-1.776c1.556,-0 2.983,0.148 4.281,0.446c1.298,0.297 2.447,0.663 3.448,1.099l-0,3.478l-0.208,0c-0.842,-0.713 -1.95,-1.305 -3.322,-1.776c-1.372,-0.47 -2.777,-0.706 -4.213,-0.706c-1.576,0 -2.842,0.327 -3.798,0.981c-0.956,0.654 -1.434,1.496 -1.434,2.527c-0,0.921 0.238,1.645 0.713,2.17c0.476,0.525 1.313,0.926 2.512,1.204c0.634,0.138 1.536,0.307 2.705,0.505c1.169,0.198 2.16,0.401 2.973,0.609c1.644,0.436 2.883,1.095 3.715,1.977c0.832,0.882 1.249,2.115 1.249,3.701Z" style="fill:#4a9fba;fill-rule:nonzero;"/></g><defs><linearGradient id="_Linear1" x1="0" y1="0" x2="1" y2="0" gradientUnits="userSpaceOnUse" gradientTransform="matrix(88.1573,-80.4534,80.4534,88.1573,98.1251,98.3658)"><stop offset="0" style="stop-color:#3e99b5;stop-opacity:1"/><stop offset="1" style="stop-color:#c7f08b;stop-opacity:1"/></linearGradient><radialGradient id="_Radial2" cx="0" cy="0" r="1" gradientUnits="userSpaceOnUse" gradientTransform="matrix(19.4057,80.6629,-80.6629,19.4057,111.531,85.1884)"><stop offset="0" style="stop-color:#c7f08b;stop-opacity:1"/><stop offset="1" style="stop-color:#3e99b5;stop-opacity:1"/></radialGradient><linearGradient id="_Linear3" x1="0" y1="0" x2="1" y2="0" gradientUnits="userSpaceOnUse" gradientTransform="matrix(1.23584e-14,201.828,-201.828,1.23584e-14,186.282,-22.4532)"><stop offset="0" style="stop-color:#c7f08b;stop-opacity:1"/><stop offset="0.44" style="stop-color:#9ed698;stop-opacity:1"/><stop offset="1" style="stop-color:#3e99b5;stop-opacity:1"/></linearGradient><linearGradient id="_Linear4" x1="0" y1="0" x2="1" y2="0" gradientUnits="userSpaceOnUse" gradientTransform="matrix(1.23584e-14,201.828,-201.828,1.23584e-14,186.282,-22.4532)"><stop offset="0" style="stop-color:#c7f08b;stop-opacity:1"/><stop offset="0.44" style="stop-color:#9ed698;stop-opacity:1"/><stop offset="1" style="stop-color:#3e99b5;stop-opacity:1"/></linearGradient><linearGradient id="_Linear5" x1="0" y1="0" x2="1" y2="0" gradientUnits="userSpaceOnUse" gradientTransform="matrix(1.23584e-14,201.828,-201.828,1.23584e-14,186.282,-22.4532)"><stop offset="0" style="stop-color:#c7f08b;stop-opacity:1"/><stop offset="0.44" style="stop-color:#9ed698;stop-opacity:1"/><stop offset="1" style="stop-color:#3e99b5;stop-opacity:1"/></linearGradient><linearGradient id="_Linear6" x1="0" y1="0" x2="1" y2="0" gradientUnits="userSpaceOnUse" gradientTransform="matrix(1.23584e-14,201.828,-201.828,1.23584e-14,186.282,-22.4532)"><stop offset="0" style="stop-color:#c7f08b;stop-opacity:1"/><stop offset="0.44" style="stop-color:#9ed698;stop-opacity:1"/><stop offset="1" style="stop-color:#3e99b5;stop-opacity:1"/></linearGradient><linearGradient id="_Linear7" x1="0" y1="0" x2="1" y2="0" gradientUnits="userSpaceOnUse" gradientTransform="matrix(1.23584e-14,201.828,-201.828,1.23584e-14,186.282,-22.4532)"><stop offset="0" style="stop-color:#c7f08b;stop-opacity:1"/><stop offset="0.44" style="stop-color:#9ed698;stop-opacity:1"/><stop offset="1" style="stop-color:#3e99b5;stop-opacity:1"/></linearGradient><linearGradient id="_Linear8" x1="0" y1="0" x2="1" y2="0" gradientUnits="userSpaceOnUse" gradientTransform="matrix(1.23584e-14,201.828,-201.828,1.23584e-14,-233.071,-4.51295)"><stop offset="0" style="stop-color:#c7f08b;stop-opacity:1"/><stop offset="0.44" style="stop-color:#9ed698;stop-opacity:1"/><stop offset="1" style="stop-color:#3e99b5;stop-opacity:1"/></linearGradient><linearGradient id="_Linear9" x1="0" y1="0" x2="1" y2="0" gradientUnits="userSpaceOnUse" gradientTransform="matrix(1.23584e-14,201.828,-201.828,1.23584e-14,-237.556,-4.51295)"><stop offset="0" style="stop-color:#c7f08b;stop-opacity:1"/><stop offset="0.44" style="stop-color:#9ed698;stop-opacity:1"/><stop offset="1" style="stop-color:#3e99b5;stop-opacity:1"/></linearGradient></defs></svg>